# xmcd CD database file
#
# Track frame offsets:
#	150
#	35370
#	66189
#	96558
#	125829
#	152889
#	188650
#	212301
#	252333
#
# Disc length: 3715 seconds
#
# Revision: 1
# Processed by: cddbd v1.5.1PL0 Copyright (c) Steve Scherf et al.
# Submitted via: CDex 1.50
#
DISCID=7e0e8109
DTITLE=Thomas Quasthoff - Jazzkonzert
DYEAR=2004
DGENRE=Jazz
TTITLE0=Freedom Jazz Dance
TTITLE1=Misty
TTITLE2=Song For My Father
TTITLE3=Nothing Personal
TTITLE4=Soloimprovisation
TTITLE5=Wave
TTITLE6=My Funny Valentine
TTITLE7=Shinjuku
TTITLE8=Summertime
EXTD=YEAR: 2004
EXTT0=
EXTT1=
EXTT2=
EXTT3=
EXTT4=
EXTT5=
EXTT6=
EXTT7=
EXTT8=
PLAYORDER=
